<svg viewBox="0 0 205 79" fill="none" xmlns="http://www.w3.org/2000/svg">
  <path d="M95.5035 0.671328C95.5035 0.300699 95.2028 0 94.8322 0H72.951C65.9161 0 62.1259 2.64336 59.8182 9.04196C59.1259 10.958 58.8741 11.8322 57.7692 13.4126C57.5944 13.6573 57.3147 13.8112 57.014 13.8112H0.671328C0.300699 13.8112 0 14.1119 0 14.4825V78.3287C0 78.6993 0.300699 79 0.671328 79H22.5524C29.5874 79 34.0769 74.3776 35.6853 69.958C36.4615 67.8322 37.0839 65.2517 38.014 65.1888H94.8322C95.2028 65.1888 95.5035 64.8881 95.5035 64.5175V0.671328ZM79.049 48.6154C79.049 48.6783 79 48.7203 78.9441 48.7203H53.2587C45.7902 48.7203 42.021 55.979 40.5385 58.3706C39.6993 59.7273 38.5455 61.007 37.2168 62.1748C36.9441 62.4126 36.5944 62.5385 36.2308 62.5385H16.5594C16.4965 62.5385 16.4545 62.4895 16.4545 62.4336V30.3706C16.4545 30.3077 16.5035 30.2657 16.5594 30.2657H42.2448C50.5315 30.2657 53.6014 23.4895 54.965 20.6154C55.2028 20.1189 56.5944 17.7972 58.3846 16.7273C58.6294 16.5804 58.8741 16.4406 59.1538 16.4406H78.9371C79 16.4406 79.042 16.4895 79.042 16.5455V48.6084L79.049 48.6154Z" fill="black"/>
  <path d="M112.007 29.6638H107.462V27.2582H119.168V29.6638H114.623V42.2652H112.007V29.6638Z" fill="black"/>
  <path d="M120.02 41.0626C119.132 40.0835 118.691 38.5661 118.691 36.5101C118.691 34.4542 119.132 32.9367 120.02 31.9577C120.901 30.9787 122.237 30.4891 124.02 30.4891C125.803 30.4891 127.139 30.9787 128.02 31.9577C128.901 32.9367 129.348 34.4542 129.348 36.5101C129.348 38.5661 128.908 40.0835 128.02 41.0626C127.139 42.0416 125.803 42.5241 124.02 42.5241C122.237 42.5241 120.901 42.0346 120.02 41.0626ZM126.139 39.4752C126.579 38.8668 126.796 37.9297 126.796 36.664V36.3563C126.796 35.0905 126.579 34.1535 126.139 33.5451C125.698 32.9367 124.992 32.636 124.02 32.636C123.048 32.636 122.321 32.9367 121.894 33.5451C121.467 34.1535 121.244 35.0905 121.244 36.3563V36.664C121.244 37.9297 121.46 38.8668 121.894 39.4752C122.328 40.0835 123.034 40.3842 124.02 40.3842C125.006 40.3842 125.698 40.0835 126.139 39.4752Z" fill="black"/>
  <path d="M131.672 26.4543H134.141V35.7061L138.071 30.762H140.973L137.329 35.2236L141.176 42.2655H138.336L135.763 37.1467L134.141 38.811V42.2655H131.672V26.4543Z" fill="black"/>
  <path d="M143.44 41.0628C142.587 40.0838 142.167 38.5663 142.167 36.5104C142.167 34.4544 142.594 32.9369 143.454 31.9579C144.314 30.9789 145.608 30.4894 147.356 30.4894C148.943 30.4894 150.139 30.9649 150.922 31.909C151.712 32.86 152.104 34.3355 152.104 36.3495V37.1397H144.677C144.719 38.2796 144.95 39.1118 145.37 39.6432C145.789 40.1747 146.454 40.4404 147.377 40.4404C148.062 40.4404 148.615 40.2516 149.041 39.881C149.468 39.5104 149.677 38.9579 149.677 38.2306H152.104C152.104 39.6432 151.663 40.7132 150.789 41.4334C149.908 42.1537 148.768 42.5174 147.356 42.5174C145.601 42.5174 144.3 42.0278 143.447 41.0558L143.44 41.0628ZM149.531 35.2866C149.531 33.4824 148.803 32.5733 147.349 32.5733C146.524 32.5733 145.908 32.7971 145.489 33.2376C145.069 33.6852 144.81 34.3635 144.719 35.2796H149.531V35.2866Z" fill="black"/>
  <path d="M154.404 30.7618H156.439L156.641 32.2933H156.788C157.187 31.7268 157.676 31.2863 158.257 30.9716C158.837 30.6569 159.508 30.5031 160.264 30.5031C161.362 30.5031 162.215 30.8177 162.837 31.4541C163.453 32.0905 163.76 33.1045 163.76 34.5031V42.2653H161.292V34.9576C161.292 34.1674 161.124 33.6079 160.788 33.2723C160.452 32.9366 159.956 32.7688 159.299 32.7688C158.641 32.7688 158.04 33.0345 157.571 33.559C157.103 34.0835 156.872 34.7548 156.872 35.573V42.2653H154.404V30.7618Z" fill="black"/>
  <path d="M166.71 26.4545H169.137V29.0349H166.71V26.4545ZM166.71 30.7622H169.178V42.2657H166.71V30.7622Z" fill="black"/>
  <path d="M172.78 41.545C171.962 40.8877 171.556 40.0345 171.556 38.9856C171.556 38.8527 171.556 38.7688 171.563 38.7198C171.57 38.6709 171.57 38.6499 171.57 38.6359H173.976V38.8107C173.99 39.3772 174.22 39.7968 174.668 40.0695C175.116 40.3422 175.675 40.4751 176.346 40.4751C176.948 40.4751 177.465 40.3702 177.892 40.1604C178.318 39.9506 178.528 39.6359 178.528 39.2093C178.528 38.8737 178.409 38.601 178.179 38.3912C177.948 38.1814 177.654 38.0135 177.311 37.8877C176.969 37.7618 176.479 37.6219 175.85 37.4611C174.997 37.2443 174.304 37.0205 173.759 36.8037C173.22 36.587 172.752 36.2443 172.367 35.7758C171.983 35.3072 171.794 34.6988 171.794 33.9366C171.794 32.8457 172.22 31.9996 173.067 31.3982C173.92 30.7968 175.018 30.5031 176.381 30.5031C177.22 30.5031 177.969 30.6359 178.626 30.8947C179.283 31.1534 179.794 31.524 180.158 31.9996C180.521 32.4751 180.703 33.0205 180.703 33.6289L180.682 34.1114H178.276V34.0275C178.276 33.573 178.102 33.2233 177.752 32.9646C177.402 32.7128 176.899 32.58 176.241 32.58C175.584 32.58 175.109 32.6849 174.78 32.8947C174.451 33.1044 174.283 33.3772 174.283 33.7128C174.283 34.1184 174.486 34.4261 174.892 34.6219C175.297 34.8177 175.92 35.0135 176.752 35.2024C177.654 35.4191 178.388 35.6429 178.941 35.8667C179.493 36.0905 179.983 36.4471 180.388 36.9296C180.801 37.4121 181.004 38.0625 181.004 38.8737C181.004 40.1394 180.577 41.0695 179.717 41.6499C178.857 42.2303 177.696 42.524 176.227 42.524C174.759 42.524 173.577 42.1954 172.759 41.538L172.78 41.545Z" fill="black"/>
  <path d="M183.925 41.0626C183.072 40.0835 182.652 38.5661 182.652 36.5101C182.652 34.4542 183.079 32.9367 183.939 31.9577C184.799 30.9787 186.093 30.4891 187.841 30.4891C189.428 30.4891 190.624 30.9647 191.407 31.9087C192.198 32.8598 192.589 34.3353 192.589 36.3493V37.1395H185.163C185.205 38.2793 185.435 39.1115 185.855 39.643C186.274 40.1744 186.939 40.4402 187.862 40.4402C188.547 40.4402 189.1 40.2514 189.526 39.8807C189.953 39.5101 190.163 38.9577 190.163 38.2304H192.589C192.589 39.643 192.149 40.7129 191.274 41.4332C190.393 42.1535 189.254 42.5171 187.841 42.5171C186.086 42.5171 184.785 42.0276 183.932 41.0556L183.925 41.0626ZM190.016 35.2863C190.016 33.4821 189.288 32.573 187.834 32.573C187.009 32.573 186.393 32.7968 185.974 33.2374C185.554 33.6849 185.295 34.3633 185.205 35.2794H190.016V35.2863Z" fill="black"/>
  <path d="M195.32 41.0418C194.565 40.0488 194.187 38.5313 194.187 36.4963C194.187 34.4613 194.565 33.0208 195.32 32.0138C196.075 31.0068 197.082 30.5033 198.348 30.5033C199.859 30.5033 200.943 31.0348 201.6 32.0977H201.726V26.4543H204.194V42.2655H202.159L201.956 40.7341H201.831C201.474 41.3145 201.005 41.762 200.432 42.0697C199.859 42.3774 199.215 42.5313 198.516 42.5313C197.145 42.5313 196.082 42.0348 195.327 41.0418H195.32ZM201.124 39.3704C201.523 38.769 201.719 37.8669 201.719 36.6711V36.4054C201.719 33.9718 200.894 32.7551 199.25 32.7551C198.348 32.7551 197.698 33.0418 197.313 33.6222C196.929 34.1956 196.74 35.1187 196.74 36.3914V36.6781C196.74 37.9299 196.929 38.846 197.313 39.4194C197.698 39.9928 198.341 40.2865 199.25 40.2865C200.103 40.2865 200.726 39.9858 201.124 39.3774V39.3704Z" fill="black"/>
  <path d="M108.492 49.5523H116.142C116.898 49.5523 117.569 49.7061 118.17 50.0138C118.765 50.3215 119.233 50.7551 119.569 51.3145C119.905 51.874 120.073 52.5243 120.073 53.2516C120.073 54.0838 119.856 54.804 119.422 55.4194C118.989 56.0348 118.436 56.4544 117.765 56.6852V56.7691C118.562 56.9439 119.205 57.3565 119.709 58.0138C120.212 58.6712 120.457 59.4684 120.457 60.4194C120.457 61.7761 120.059 62.804 119.254 63.5033C118.45 64.2026 117.415 64.5523 116.135 64.5523H108.485V49.5453L108.492 49.5523ZM115.443 55.6991C116.045 55.6991 116.52 55.5243 116.863 55.1747C117.205 54.825 117.38 54.3775 117.38 53.839C117.38 53.2096 117.219 52.7411 116.905 52.4194C116.59 52.0977 116.156 51.9369 115.611 51.9369H111.128V55.6991H115.45H115.443ZM115.793 62.1747C116.394 62.1747 116.877 61.9998 117.233 61.6572C117.59 61.3145 117.765 60.804 117.765 60.1187C117.765 59.4334 117.59 58.9509 117.233 58.5872C116.877 58.2236 116.345 58.0418 115.646 58.0418H111.121V62.1747H115.793Z" fill="black"/>
  <path d="M123.054 48.748H125.481V51.3285H123.054V48.748ZM123.054 53.0557H125.522V64.5592H123.054V53.0557Z" fill="black"/>
  <path d="M128.504 48.7482H130.972V64.5594H128.504V48.7482Z" fill="black"/>
  <path d="M133.957 48.748H136.426V64.5592H133.957V48.748Z" fill="black"/>
  <path d="M140.036 63.8395C139.218 63.1821 138.812 62.329 138.812 61.28C138.812 61.1471 138.813 61.0632 138.819 61.0143C138.826 60.9653 138.826 60.9443 138.826 60.9304H141.232V61.1052C141.246 61.6716 141.477 62.0912 141.924 62.3639C142.372 62.6367 142.931 62.7695 143.603 62.7695C144.204 62.7695 144.722 62.6646 145.148 62.4548C145.575 62.245 145.785 61.9304 145.785 61.5038C145.785 61.1681 145.666 60.8954 145.435 60.6856C145.204 60.4758 144.91 60.308 144.568 60.1821C144.225 60.0562 143.736 59.9164 143.106 59.7555C142.253 59.5388 141.561 59.315 141.015 59.0982C140.477 58.8814 140.008 58.5388 139.624 58.0702C139.239 57.6017 139.05 56.9933 139.05 56.2311C139.05 55.1401 139.477 54.294 140.323 53.6926C141.176 53.0912 142.274 52.7975 143.638 52.7975C144.477 52.7975 145.225 52.9304 145.882 53.1891C146.54 53.4478 147.05 53.8185 147.414 54.294C147.778 54.7695 147.959 55.315 147.959 55.9234L147.938 56.4059H145.533V56.322C145.533 55.8674 145.358 55.5178 145.008 55.259C144.659 55.0073 144.155 54.8744 143.498 54.8744C142.84 54.8744 142.365 54.9793 142.036 55.1891C141.708 55.3989 141.54 55.6716 141.54 56.0073C141.54 56.4129 141.743 56.7206 142.148 56.9164C142.554 57.1122 143.176 57.308 144.008 57.4968C144.91 57.7136 145.645 57.9373 146.197 58.1611C146.75 58.3849 147.239 58.7415 147.645 59.2241C148.057 59.7066 148.26 60.3569 148.26 61.1681C148.26 62.4339 147.833 63.3639 146.973 63.9443C146.113 64.5248 144.952 64.8185 143.484 64.8185C142.015 64.8185 140.833 64.4898 140.015 63.8325L140.036 63.8395Z" fill="black"/>
</svg>